<?xml version="1.0" encoding="iso-8859-1"?>
<!-- Uploaded to: SVG Repo, www.svgrepo.com, Generator: SVG Repo Mixer Tools -->
<svg fill="#222e44" height="800px" width="800px" version="1.1" id="Capa_1" xmlns="http://www.w3.org/2000/svg" xmlns:xlink="http://www.w3.org/1999/xlink" 
	 viewBox="0 0 489.907 489.907" xml:space="preserve">
<g>
	<g>
		<g>
			<path d="M375.536,114.28c-8.2-8.2-16.3-15.5-24.9-22.9c-24.4,51.6-62.1,103.7-108.7,150.7s-98.7,84.3-150.8,108.8
				c7.4,8.5,14.8,16.7,22.9,24.9c114.3,114.2,265.4,148.4,337.7,76.5C524.036,379.68,489.836,228.48,375.536,114.28z"/>
			<path d="M158.336,116.58c17.1,17.1,25.6,37.3,23.3,50.9l53.2,53.2c44.7-46.2,78.9-95.6,100.3-142.6
				c-103.3-81.6-223.8-102.6-289.9-47l62.2,62.2C121.036,90.58,141.236,99.48,158.336,116.58z"/>
			<path d="M167.636,181.48c-13.6,2.7-33.8-6.2-50.9-23.3s-25.6-37.3-23.3-50.9l-62.1-62.2c-55.6,66.1-34.6,186.5,47,289.9
				c47-21.4,96.4-55.6,142.6-100.3L167.636,181.48z"/>
		</g>
	</g>
</g>
</svg>